<?xml version="1.0" standalone="no"?>
<!DOCTYPE svg PUBLIC "-//W3C//DTD SVG 20010904//EN"
 "http://www.w3.org/TR/2001/REC-SVG-20010904/DTD/svg10.dtd">
<svg version="1.0" xmlns="http://www.w3.org/2000/svg"
 width="120.000000pt" height="48.000000pt" viewBox="0 0 120.000000 48.000000"
 preserveAspectRatio="xMidYMid meet">
<metadata>
Created by potrace 1.16, written by Peter Selinger 2001-2019
</metadata>
<g transform="translate(0.000000,48.000000) scale(0.100000,-0.100000)"
fill="#000000" stroke="none">
<path d="M510 473 c-36 -13 -70 -57 -70 -90 0 -32 1 -33 40 -33 33 0 42 4 49
24 22 57 141 43 141 -18 0 -37 -21 -52 -108 -81 -107 -36 -122 -54 -122 -146
0 -75 14 -100 66 -119 44 -17 156 -12 194 9 52 27 62 68 58 241 -4 160 -10
179 -64 205 -31 15 -151 20 -184 8z m160 -308 c0 -67 -22 -95 -75 -95 -59 0
-93 51 -62 93 11 16 98 56 125 57 8 0 12 -17 12 -55z"/>
</g>
</svg>
